<svg xmlns="http://www.w3.org/2000/svg" width="256" height="256" viewBox="0 0 256 256"><g fill="none" stroke="#000" stroke-width="16" stroke-linecap="round" stroke-linejoin="round"><path d="M210 196a112 112 0 1 1 0-136"/><path d="M216.364 33.837q4.242-4.243 5.041 1.704l4.766 35.482q.8 5.947-5.147 5.148l-35.483-4.766q-5.947-.799-1.704-5.041Z" fill="#000" stroke="none"/><path d="M128 54c-18 0-33 22 0 74 33-52 18-74 0-74m64.086 111c9-15.588-2.553-39.579-64.086-37 28.533 54.579 55.086 52.588 64.086 37m-128.172 0c9 15.588 35.553 17.579 64.086-37-61.533-2.579-73.086 21.412-64.086 37"/><circle cx="128" cy="128" r="6" fill="#000" stroke="none"/></g></svg>