<svg xmlns="http://www.w3.org/2000/svg" width="256" height="256" viewBox="0 0 256 256"><g fill="none" stroke="#000" stroke-linecap="round" stroke-linejoin="round"><path d="M148 22a96 96 0 0 1 86 86" stroke-width="16"/><path d="M251.612 92.71q5.909-1.042 3.736 3.91l-15.095 29.57q-2.086 5.446-5.909 1.042l-24.297-22.624q-3.736-3.91 2.173-4.953Z" fill="#000"/><path d="M234 148a96 96 0 0 1-86 86" stroke-width="16"/><path d="M163.291 251.612q1.042 5.909-3.91 3.736l-29.571-15.095q-5.445-2.086-1.042-5.908l22.624-24.298q3.911-3.736 4.953 2.173Z" fill="#000"/><path d="M108 234a96 96 0 0 1-86-86" stroke-width="16"/><path d="M4.387 163.29q-5.909 1.042-3.736-3.91l15.095-29.57q2.086-5.446 5.909-1.043l24.297 22.625q3.736 3.91-2.173 4.952Z" fill="#000"/><path d="M22 108a96 96 0 0 1 86-86" stroke-width="16"/><path d="M92.71 4.388q-1.043-5.91 3.91-3.736l29.57 15.094q5.445 2.086 1.042 5.909l-22.624 24.298q-3.91 3.736-4.953-2.173Z" fill="#000"/><path d="M128 53c-18 0-34 22 0 75 34-53 18-75 0-75M192.952 165.5c9-15.588-2.053-40.445-64.952-37.5 28.9 55.945 55.952 53.088 64.952 37.5M63.048 165.5c9 15.588 36.053 18.445 64.952-37.5-62.9-2.945-73.952 21.912-64.952 37.5" stroke-width="16"/><circle cx="128" cy="128" r="6" fill="#000"/></g></svg>